<svg width="83" height="28" viewBox="0 0 83 28" fill="none" xmlns="http://www.w3.org/2000/svg">
<path d="M36.2652 26.9406H29.5502L33.747 1.14885L40.4626 1.14885L36.2652 26.9406ZM23.9012 1.14885L17.4995 18.8886L16.742 15.0685L16.7427 15.0699L14.4832 3.4711C14.4832 3.4711 14.21 1.14885 11.2979 1.14885L0.714639 1.14885L0.590454 1.58556C0.590454 1.58556 3.82684 2.25892 7.61446 4.53356L13.4484 26.9412L20.4448 26.9412L31.1281 1.14885L23.9012 1.14885V1.14885ZM76.7175 26.9406H82.8833L77.5075 1.14816L72.1096 1.14816C69.6169 1.14816 69.0098 3.07026 69.0098 3.07026L58.995 26.9406H65.9949L67.3947 23.1095H75.931L76.7175 26.9406ZM69.3286 17.8171L72.8568 8.16526L74.8417 17.8171H69.3286ZM59.5201 7.35117L60.4784 1.81254C60.4784 1.81254 57.5214 0.687988 54.4389 0.687988C51.1066 0.687988 43.1933 2.14439 43.1933 9.22635C43.1933 15.8895 52.4809 15.9723 52.4809 19.4722C52.4809 22.9722 44.1502 22.345 41.4009 20.138L40.4026 25.9291C40.4026 25.9291 43.4009 27.3856 47.982 27.3856C52.5644 27.3856 59.4773 25.0129 59.4773 18.5554C59.4773 11.8494 50.1062 11.225 50.1062 8.30946C50.1069 5.3932 56.6466 5.76782 59.5201 7.35117V7.35117Z" fill="#2566AF"/>
<path d="M16.7423 15.0693L14.4829 3.47044C14.4829 3.47044 14.2097 1.14819 11.2975 1.14819L0.714272 1.14819L0.590088 1.58491C0.590088 1.58491 5.67682 2.63909 10.5559 6.58885C15.2211 10.364 16.7423 15.0693 16.7423 15.0693Z" fill="#E6A540"/>
</svg>
